# xmcd CD database file
#
# Track frame offsets:
#	150
#	16666
#	33151
#	55407
#	73528
#	90823
#	109401
#	128070
#	140922
#	156887
#
# Disc length: 2381 seconds
#
# Revision: 0
# Processed by: cddbd v1.5PL3 Copyright (c) Steve Scherf et al.
# Submitted via: CDex 1.50beta10
#
DISCID=7e094b0a
DTITLE=山口百恵 - Disc19 春告鳥
DYEAR=2003
DGENRE=JPop
TTITLE0=春爛漫
TTITLE1=イノセント -純粋-
TTITLE2=娘たち
TTITLE3=抱きしめられて
TTITLE4=愛染橋
TTITLE5=愛の嵐
TTITLE6=ほゝえみのむこう側
TTITLE7=NAVY HILL
TTITLE8=夕暮からあなたへ
TTITLE9=しなやかに歌って -80年代に向かって-
EXTD=YEAR: 2003
EXTT0=
EXTT1=
EXTT2=
EXTT3=
EXTT4=
EXTT5=
EXTT6=
EXTT7=
EXTT8=
EXTT9=
PLAYORDER=
